<mxfile host="app.diagrams.net" modified="2024-02-19T07:27:37.195Z" agent="Mozilla/5.0 (Macintosh; Intel Mac OS X 10_15_7) AppleWebKit/537.36 (KHTML, like Gecko) Chrome/121.0.0.0 Safari/537.36" etag="Z9pNCDweHfEg6pVgSsxl" version="23.1.5" type="github">
  <diagram name="Page-1" id="FiIhAbPxVFcxjOST79WN">
    <mxGraphModel dx="761" dy="519" grid="1" gridSize="10" guides="1" tooltips="1" connect="1" arrows="1" fold="1" page="1" pageScale="1" pageWidth="850" pageHeight="1100" math="0" shadow="0">
      <root>
        <mxCell id="0" />
        <mxCell id="1" parent="0" />
        <mxCell id="Z-2UmLTwWZ4RJYCQko_Q-2" value="" style="whiteSpace=wrap;html=1;aspect=fixed;horizontal=1;verticalAlign=middle;" parent="1" vertex="1">
          <mxGeometry x="210" y="40" width="80" height="80" as="geometry" />
        </mxCell>
        <mxCell id="Z-2UmLTwWZ4RJYCQko_Q-3" value="" style="whiteSpace=wrap;html=1;aspect=fixed;horizontal=1;verticalAlign=middle;" parent="1" vertex="1">
          <mxGeometry x="70" y="220" width="80" height="80" as="geometry" />
        </mxCell>
        <mxCell id="nlG9S0QXpwNo23e3YbVx-2" value="" style="edgeStyle=entityRelationEdgeStyle;fontSize=12;html=1;endArrow=ERzeroToMany;startArrow=ERmandOne;rounded=0;entryX=0;entryY=0.5;entryDx=0;entryDy=0;exitX=1.012;exitY=0.566;exitDx=0;exitDy=0;exitPerimeter=0;endSize=8;startSize=6;" parent="1" source="Z-2UmLTwWZ4RJYCQko_Q-3" target="Z-2UmLTwWZ4RJYCQko_Q-2" edge="1">
          <mxGeometry width="100" height="100" relative="1" as="geometry">
            <mxPoint x="150" y="250" as="sourcePoint" />
            <mxPoint x="250" y="150" as="targetPoint" />
            <Array as="points">
              <mxPoint x="100" y="190" />
              <mxPoint x="80" y="170" />
            </Array>
          </mxGeometry>
        </mxCell>
      </root>
    </mxGraphModel>
  </diagram>
</mxfile>
